<?xml version="1.0" encoding="UTF-8" ?>
<svg version="1.1" width="128" height="128" xmlns="http://www.w3.org/2000/svg" shape-rendering="crispEdges">
<rect x="4" y="32" width="8" height="4" fill="#222034" />
<rect x="4" y="36" width="4" height="56" fill="#222034" />
<rect x="8" y="36" width="4" height="52" fill="#5B6EE1" />
<rect x="12" y="36" width="8" height="4" fill="#222034" />
<rect x="60" y="36" width="24" height="4" fill="#222034" />
<rect x="12" y="40" width="4" height="44" fill="#5B6EE1" />
<rect x="16" y="40" width="4" height="44" fill="#FBF236" />
<rect x="20" y="40" width="8" height="4" fill="#222034" />
<rect x="56" y="40" width="4" height="4" fill="#222034" />
<rect x="60" y="40" width="8" height="44" fill="#5B6EE1" />
<rect x="68" y="40" width="8" height="44" fill="#3F3F74" />
<rect x="76" y="40" width="8" height="12" fill="#5FCDE4" />
<rect x="84" y="40" width="4" height="4" fill="#222034" />
<rect x="20" y="44" width="4" height="36" fill="#FBF236" />
<rect x="24" y="44" width="4" height="36" fill="#AC3232" />
<rect x="28" y="44" width="4" height="4" fill="#222034" />
<rect x="52" y="44" width="4" height="4" fill="#222034" />
<rect x="56" y="44" width="4" height="36" fill="#6ABE30" />
<rect x="84" y="44" width="4" height="8" fill="#5FCDE4" />
<rect x="88" y="44" width="4" height="4" fill="#222034" />
<rect x="28" y="48" width="4" height="28" fill="#AC3232" />
<rect x="32" y="48" width="4" height="4" fill="#222034" />
<rect x="48" y="48" width="4" height="4" fill="#222034" />
<rect x="52" y="48" width="4" height="28" fill="#6ABE30" />
<rect x="88" y="48" width="4" height="32" fill="#5FCDE4" />
<rect x="92" y="48" width="4" height="4" fill="#222034" />
<rect x="32" y="52" width="4" height="20" fill="#FFFFFF" />
<rect x="36" y="52" width="4" height="4" fill="#222034" />
<rect x="44" y="52" width="4" height="4" fill="#222034" />
<rect x="48" y="52" width="4" height="20" fill="#DF7126" />
<rect x="76" y="52" width="4" height="32" fill="#5FCDE4" />
<rect x="80" y="52" width="8" height="8" fill="#222034" />
<rect x="92" y="52" width="4" height="24" fill="#5FCDE4" />
<rect x="96" y="52" width="4" height="4" fill="#222034" />
<rect x="36" y="56" width="4" height="12" fill="#FFFFFF" />
<rect x="40" y="56" width="4" height="12" fill="#222034" />
<rect x="44" y="56" width="4" height="12" fill="#DF7126" />
<rect x="96" y="56" width="4" height="16" fill="#AC3232" />
<rect x="100" y="56" width="4" height="4" fill="#222034" />
<rect x="80" y="60" width="8" height="24" fill="#5FCDE4" />
<rect x="100" y="60" width="4" height="8" fill="#AC3232" />
<rect x="104" y="60" width="4" height="8" fill="#222034" />
<rect x="36" y="68" width="4" height="4" fill="#222034" />
<rect x="44" y="68" width="4" height="4" fill="#222034" />
<rect x="100" y="68" width="4" height="4" fill="#222034" />
<rect x="32" y="72" width="4" height="4" fill="#222034" />
<rect x="48" y="72" width="4" height="4" fill="#222034" />
<rect x="96" y="72" width="4" height="4" fill="#222034" />
<rect x="28" y="76" width="4" height="4" fill="#222034" />
<rect x="52" y="76" width="4" height="4" fill="#222034" />
<rect x="92" y="76" width="4" height="4" fill="#222034" />
<rect x="20" y="80" width="8" height="4" fill="#222034" />
<rect x="56" y="80" width="4" height="4" fill="#222034" />
<rect x="88" y="80" width="4" height="4" fill="#222034" />
<rect x="12" y="84" width="8" height="4" fill="#222034" />
<rect x="60" y="84" width="28" height="4" fill="#222034" />
<rect x="8" y="88" width="4" height="4" fill="#222034" />
</svg>