<?xml version="1.0" encoding="UTF-8" ?>
<svg version="1.1" width="128" height="128" xmlns="http://www.w3.org/2000/svg" shape-rendering="crispEdges">
<rect x="0" y="0" width="128" height="24" fill="#99E550" />
<rect x="0" y="24" width="16" height="4" fill="#99E550" />
<rect x="16" y="24" width="12" height="4" fill="#222034" />
<rect x="28" y="24" width="20" height="4" fill="#99E550" />
<rect x="48" y="24" width="16" height="4" fill="#222034" />
<rect x="64" y="24" width="64" height="4" fill="#99E550" />
<rect x="0" y="28" width="12" height="100" fill="#99E550" />
<rect x="12" y="28" width="4" height="68" fill="#222034" />
<rect x="16" y="28" width="12" height="68" fill="#FFFFFF" />
<rect x="28" y="28" width="20" height="4" fill="#222034" />
<rect x="48" y="28" width="16" height="68" fill="#639BFF" />
<rect x="64" y="28" width="20" height="4" fill="#222034" />
<rect x="84" y="28" width="44" height="4" fill="#99E550" />
<rect x="28" y="32" width="20" height="60" fill="#FFFFFF" />
<rect x="64" y="32" width="20" height="60" fill="#FFFFFF" />
<rect x="84" y="32" width="4" height="4" fill="#222034" />
<rect x="88" y="32" width="40" height="4" fill="#99E550" />
<rect x="84" y="36" width="4" height="56" fill="#FFFFFF" />
<rect x="88" y="36" width="4" height="4" fill="#222034" />
<rect x="92" y="36" width="36" height="4" fill="#99E550" />
<rect x="88" y="40" width="4" height="48" fill="#FFFFFF" />
<rect x="92" y="40" width="4" height="4" fill="#222034" />
<rect x="96" y="40" width="32" height="4" fill="#99E550" />
<rect x="92" y="44" width="4" height="40" fill="#FFFFFF" />
<rect x="96" y="44" width="4" height="4" fill="#222034" />
<rect x="100" y="44" width="28" height="4" fill="#99E550" />
<rect x="96" y="48" width="4" height="32" fill="#FFFFFF" />
<rect x="100" y="48" width="4" height="4" fill="#222034" />
<rect x="104" y="48" width="4" height="4" fill="#99E550" />
<rect x="108" y="48" width="16" height="4" fill="#222034" />
<rect x="124" y="48" width="4" height="80" fill="#99E550" />
<rect x="100" y="52" width="4" height="24" fill="#FFFFFF" />
<rect x="104" y="52" width="8" height="4" fill="#222034" />
<rect x="112" y="52" width="8" height="24" fill="#639BFF" />
<rect x="120" y="52" width="4" height="28" fill="#222034" />
<rect x="104" y="56" width="4" height="16" fill="#FFFFFF" />
<rect x="108" y="56" width="4" height="24" fill="#222034" />
<rect x="104" y="72" width="4" height="4" fill="#222034" />
<rect x="100" y="76" width="4" height="4" fill="#222034" />
<rect x="104" y="76" width="4" height="52" fill="#99E550" />
<rect x="112" y="76" width="8" height="4" fill="#222034" />
<rect x="96" y="80" width="4" height="4" fill="#222034" />
<rect x="100" y="80" width="4" height="48" fill="#99E550" />
<rect x="108" y="80" width="16" height="48" fill="#99E550" />
<rect x="92" y="84" width="4" height="4" fill="#222034" />
<rect x="96" y="84" width="4" height="44" fill="#99E550" />
<rect x="88" y="88" width="4" height="4" fill="#222034" />
<rect x="92" y="88" width="4" height="40" fill="#99E550" />
<rect x="28" y="92" width="4" height="4" fill="#FFFFFF" />
<rect x="32" y="92" width="16" height="4" fill="#222034" />
<rect x="64" y="92" width="24" height="4" fill="#222034" />
<rect x="88" y="92" width="4" height="36" fill="#99E550" />
<rect x="12" y="96" width="4" height="32" fill="#99E550" />
<rect x="16" y="96" width="16" height="4" fill="#222034" />
<rect x="32" y="96" width="16" height="32" fill="#99E550" />
<rect x="48" y="96" width="16" height="4" fill="#222034" />
<rect x="64" y="96" width="24" height="32" fill="#99E550" />
<rect x="16" y="100" width="16" height="28" fill="#99E550" />
<rect x="48" y="100" width="16" height="28" fill="#99E550" />
</svg>